<svg width="16" height="17" viewBox="0 0 16 17" fill="none" xmlns="http://www.w3.org/2000/svg">
<g clip-path="url(#clip0_701_680)">
<path d="M6.26663 11.1667H1.99996C1.64634 11.1667 1.3072 11.0262 1.05715 10.7761C0.807103 10.5261 0.666627 10.187 0.666627 9.83333V8.43067C0.666447 8.25643 0.700421 8.08384 0.766627 7.92267L2.83063 2.91333C2.88081 2.79117 2.96616 2.68666 3.07583 2.61307C3.1855 2.53949 3.31455 2.50013 3.44663 2.5H14.6666C14.8434 2.5 15.013 2.57024 15.138 2.69526C15.2631 2.82029 15.3333 2.98986 15.3333 3.16667V9.83333C15.3333 10.0101 15.2631 10.1797 15.138 10.3047C15.013 10.4298 14.8434 10.5 14.6666 10.5H12.3453C12.2386 10.5 12.1334 10.5256 12.0386 10.5746C11.9438 10.6237 11.8622 10.6948 11.8006 10.782L8.16529 15.9327C8.11934 15.9978 8.05157 16.0443 7.97427 16.0637C7.89697 16.0832 7.81526 16.0743 7.74396 16.0387L6.53463 15.4333C6.19429 15.2632 5.9224 14.9818 5.76414 14.6358C5.60587 14.2898 5.57076 13.9001 5.66463 13.5313L6.26663 11.1667ZM11.3333 9.44133V3.83333H3.89329L1.99996 8.43067V9.83333H6.26663C6.46969 9.83336 6.67007 9.87977 6.85247 9.96903C7.03487 10.0583 7.19448 10.188 7.31911 10.3483C7.44374 10.5087 7.53011 10.6953 7.57162 10.8941C7.61313 11.0929 7.60868 11.2985 7.55863 11.4953L6.95663 13.8607C6.93779 13.9344 6.94478 14.0125 6.97643 14.0817C7.00809 14.151 7.06251 14.2073 7.13063 14.2413L7.57129 14.4613L10.7113 10.0133C10.878 9.77733 11.0913 9.584 11.3333 9.44133ZM12.6666 9.16667H14V3.83333H12.6666V9.16667Z" fill="white" fill-opacity="0.5"/>
</g>
<defs>
<clipPath id="clip0_701_680">
<rect width="16" height="16" fill="white" transform="translate(0 0.5)"/>
</clipPath>
</defs>
</svg>
