<svg width="16" height="16" viewBox="0 0 16 16" fill="none" xmlns="http://www.w3.org/2000/svg">
<g clip-path="url(#clip0_701_683)">
<path d="M9.73337 5.33333H14C14.3537 5.33333 14.6928 5.47381 14.9428 5.72386C15.1929 5.97391 15.3334 6.31304 15.3334 6.66667V8.06933C15.3336 8.24357 15.2996 8.41616 15.2334 8.57733L13.1694 13.5867C13.1192 13.7088 13.0338 13.8133 12.9242 13.8869C12.8145 13.9605 12.6854 13.9999 12.5534 14L1.33337 14C1.15656 14 0.986992 13.9298 0.861967 13.8047C0.736943 13.6797 0.666706 13.5101 0.666706 13.3333L0.666706 6.66667C0.666706 6.48986 0.736943 6.32029 0.861967 6.19526C0.986992 6.07024 1.15656 6 1.33337 6H3.65471C3.76144 6.00003 3.86661 5.97443 3.96139 5.92536C4.05618 5.87628 4.13779 5.80517 4.19937 5.718L7.83471 0.567333C7.88066 0.502208 7.94843 0.455707 8.02573 0.43626C8.10303 0.416813 8.18474 0.425708 8.25604 0.461333L9.46537 1.06667C9.80571 1.23677 10.0776 1.51821 10.2359 1.86421C10.3941 2.21021 10.4292 2.59995 10.3354 2.96867L9.73337 5.33333ZM4.66671 7.05867V12.6667L12.1067 12.6667L14 8.06933V6.66667L9.73337 6.66667C9.53031 6.66664 9.32993 6.62023 9.14753 6.53097C8.96513 6.44172 8.80552 6.31198 8.68089 6.15166C8.55626 5.99133 8.46989 5.80466 8.42838 5.60588C8.38687 5.4071 8.39132 5.20147 8.44137 5.00467L9.04337 2.63933C9.06221 2.56555 9.05522 2.48754 9.02357 2.41829C8.99191 2.34903 8.93749 2.2927 8.86937 2.25867L8.42871 2.03867L5.28871 6.48667C5.12204 6.72267 4.90871 6.916 4.66671 7.05867V7.05867ZM3.33337 7.33333H2.00004V12.6667H3.33337V7.33333Z" fill="white" fill-opacity="0.5"/>
</g>
<defs>
<clipPath id="clip0_701_683">
<rect width="16" height="16" fill="white" transform="matrix(-1 0 0 -1 16 16)"/>
</clipPath>
</defs>
</svg>
