<svg width="20" height="20" viewBox="0 0 20 20" fill="none" xmlns="http://www.w3.org/2000/svg">
<path fill-rule="evenodd" clip-rule="evenodd" d="M9.99935 4.54611C8.11232 4.54611 5.54208 4.70788 3.90991 4.82683C3.36787 4.86633 2.94807 5.29541 2.94807 5.8195V6.41172L9.4805 9.8429C9.80317 10.0124 10.1955 10.0124 10.5182 9.8429L17.0506 6.41172V5.8195C17.0506 5.29541 16.6308 4.86633 16.0888 4.82683C14.4566 4.70788 11.8864 4.54611 9.99935 4.54611ZM17.0506 7.79834L11.1408 10.9025C10.4309 11.2753 9.56776 11.2753 8.85788 10.9025L2.94807 7.79834V14.1818C2.94807 14.7059 3.36787 15.135 3.90991 15.1745C5.54208 15.2934 8.11232 15.4552 9.99935 15.4552C11.8864 15.4552 14.4566 15.2934 16.0888 15.1745C16.6308 15.135 17.0506 14.7059 17.0506 14.1818V7.79834ZM3.81138 3.61829C5.44453 3.49927 8.05825 3.33398 9.99935 3.33398C11.9405 3.33398 14.5542 3.49927 16.1873 3.61829C17.4078 3.70724 18.3327 4.67222 18.3327 5.8195V14.1818C18.3327 15.3291 17.4078 16.2941 16.1873 16.383C14.5542 16.502 11.9405 16.6673 9.99935 16.6673C8.05825 16.6673 5.44453 16.502 3.81138 16.383C2.59087 16.2941 1.66602 15.3291 1.66602 14.1818V5.8195C1.66602 4.67222 2.59087 3.70724 3.81138 3.61829Z" fill="white"/>
</svg>
