<svg width="36" height="36" viewBox="0 0 36 36" fill="none" xmlns="http://www.w3.org/2000/svg">
<g clip-path="url(#clip0_701_700)">
<path d="M35.649 18.4146C35.649 17.191 35.5498 15.9608 35.3382 14.7571H18.36V21.6886H28.0826C27.6791 23.9241 26.3828 25.9017 24.4846 27.1583V31.6558H30.2851C33.6913 28.5208 35.649 23.891 35.649 18.4146Z" fill="#5B5959"/>
<path d="M18.36 36.0012C23.2146 36.0012 27.3087 34.4073 30.2916 31.6558L24.4911 27.1583C22.8773 28.2562 20.7939 28.878 18.3666 28.878C13.6706 28.878 9.68901 25.7099 8.26039 21.4504H2.27472V26.0869C5.33039 32.1651 11.5542 36.0012 18.36 36.0012Z" fill="#5B5959"/>
<path d="M8.25379 21.4504C7.4998 19.2149 7.4998 16.7942 8.25379 14.5587V9.92224H2.27474C-0.278266 15.0084 -0.278266 21.0007 2.27474 26.0869L8.25379 21.4504Z" fill="#5B5959"/>
<path d="M18.36 7.12449C20.9262 7.08481 23.4064 8.05045 25.265 9.823L30.4041 4.68392C27.15 1.62826 22.831 -0.051699 18.36 0.001213C11.5542 0.001213 5.33039 3.83733 2.27472 9.92221L8.25377 14.5586C9.67578 10.2926 13.664 7.12449 18.36 7.12449Z" fill="#5B5959"/>
</g>
<defs>
<clipPath id="clip0_701_700">
<rect width="36" height="36" fill="white"/>
</clipPath>
</defs>
</svg>
