<svg width="50" height="50" viewBox="0 0 50 50" fill="none" xmlns="http://www.w3.org/2000/svg">
<path d="M21.7323 3.58658C23.4857 1.66205 26.5143 1.66205 28.2677 3.58658C29.4309 4.86327 31.2311 5.34562 32.8768 4.82157C35.3576 4.0316 37.9804 5.54589 38.5366 8.0893C38.9056 9.77653 40.2235 11.0944 41.9107 11.4634C44.4541 12.0196 45.9684 14.6424 45.1784 17.1232C44.6544 18.7689 45.1367 20.5691 46.4134 21.7323C48.338 23.4857 48.338 26.5143 46.4134 28.2677C45.1367 29.4309 44.6544 31.2311 45.1784 32.8768C45.9684 35.3576 44.4541 37.9804 41.9107 38.5366C40.2235 38.9056 38.9056 40.2235 38.5366 41.9107C37.9804 44.4541 35.3576 45.9684 32.8768 45.1784C31.2311 44.6544 29.4309 45.1367 28.2677 46.4134C26.5143 48.338 23.4857 48.338 21.7323 46.4134C20.5691 45.1367 18.7689 44.6544 17.1232 45.1784C14.6424 45.9684 12.0196 44.4541 11.4634 41.9107C11.0944 40.2235 9.77653 38.9056 8.0893 38.5366C5.54589 37.9804 4.0316 35.3576 4.82157 32.8768C5.34562 31.2311 4.86327 29.4309 3.58658 28.2677C1.66205 26.5143 1.66205 23.4857 3.58658 21.7323C4.86327 20.5691 5.34562 18.7689 4.82157 17.1232C4.0316 14.6424 5.54589 12.0196 8.0893 11.4634C9.77653 11.0944 11.0944 9.77653 11.4634 8.0893C12.0196 5.54589 14.6424 4.0316 17.1232 4.82157C18.7689 5.34562 20.5691 4.86327 21.7323 3.58658Z" fill="white"/>
<path fill-rule="evenodd" clip-rule="evenodd" d="M33.6704 15.1126C33.5168 15.2036 30.9566 17.802 27.9811 20.8865L22.5714 26.4949L20.0203 23.864C18.6172 22.4171 17.3223 21.1866 17.1429 21.1298C16.4049 20.8962 15.9697 21.1558 14.4637 22.7273L13 24.2547V24.9774V25.7001L17.3987 30.2762C22.0651 35.1306 22.2094 35.2468 23.0982 34.864C23.311 34.7723 26.751 31.3005 30.7425 27.149L38 19.6007V18.8758V18.151L36.5226 16.6147C35.238 15.2786 34.9739 15.0697 34.4975 15.0125C34.1962 14.9763 33.824 15.0214 33.6704 15.1126Z" fill="#5600E1"/>
</svg>
