<svg width="70" height="70" viewBox="0 0 70 70" fill="none" xmlns="http://www.w3.org/2000/svg">
<path d="M30.4252 5.02122C32.88 2.32687 37.12 2.32687 39.5748 5.02122V5.02122C41.2033 6.80858 43.7235 7.48388 46.0275 6.7502V6.7502C49.5006 5.64424 53.1725 7.76424 53.9513 11.325V11.325C54.4679 13.6871 56.3129 15.5321 58.675 16.0487V16.0487C62.2358 16.8275 64.3558 20.4994 63.2498 23.9725V23.9725C62.5161 26.2765 63.1914 28.7967 64.9788 30.4252V30.4252C67.6731 32.88 67.6731 37.12 64.9788 39.5748V39.5748C63.1914 41.2033 62.5161 43.7235 63.2498 46.0275V46.0275C64.3558 49.5006 62.2358 53.1725 58.675 53.9513V53.9513C56.3129 54.4679 54.4679 56.3129 53.9513 58.675V58.675C53.1725 62.2358 49.5006 64.3558 46.0275 63.2498V63.2498C43.7235 62.5161 41.2033 63.1914 39.5748 64.9788V64.9788C37.12 67.6731 32.88 67.6731 30.4252 64.9788V64.9788C28.7967 63.1914 26.2765 62.5161 23.9725 63.2498V63.2498C20.4994 64.3558 16.8275 62.2358 16.0487 58.675V58.675C15.5321 56.3129 13.6871 54.4679 11.325 53.9513V53.9513C7.76424 53.1725 5.64424 49.5006 6.7502 46.0275V46.0275C7.48387 43.7235 6.80858 41.2033 5.02122 39.5748V39.5748C2.32687 37.12 2.32687 32.88 5.02122 30.4252V30.4252C6.80858 28.7967 7.48388 26.2765 6.75021 23.9725V23.9725C5.64424 20.4994 7.76424 16.8275 11.325 16.0487V16.0487C13.6871 15.5321 15.5321 13.6871 16.0487 11.325V11.325C16.8275 7.76424 20.4994 5.64424 23.9725 6.75021V6.75021C26.2765 7.48388 28.7967 6.80858 30.4252 5.02122V5.02122Z" fill="#5600E1"/>
<path fill-rule="evenodd" clip-rule="evenodd" d="M44.8045 23.1307C44.6201 23.2365 41.5479 26.2539 37.9774 29.8359L31.4856 36.3489L28.4243 33.2936C26.7406 31.6134 25.1868 30.1844 24.9715 30.1185C24.0859 29.8472 23.5636 30.1487 21.7564 31.9736L20 33.7473V34.5866V35.4259L25.2785 40.7401C30.8781 46.3775 31.0512 46.5125 32.1178 46.0679C32.3732 45.9614 36.5012 41.9296 41.291 37.1086L50 28.3427V27.5009V26.6593L48.2272 24.8751C46.6856 23.3235 46.3687 23.081 45.797 23.0145C45.4355 22.9725 44.9888 23.0248 44.8045 23.1307Z" fill="white"/>
</svg>
