<svg width="30" height="31" viewBox="0 0 30 31" fill="none" xmlns="http://www.w3.org/2000/svg">
<path d="M24.7339 10.53C27.6417 10.53 29.9989 8.17278 29.9989 5.265C29.9989 2.35722 27.6417 0 24.7339 0C21.8261 0 19.4689 2.35722 19.4689 5.265C19.4689 8.17278 21.8261 10.53 24.7339 10.53Z" fill="white"/>
<path d="M24.7339 30.03C27.6417 30.03 29.9989 27.6728 29.9989 24.765C29.9989 21.8572 27.6417 19.5 24.7339 19.5C21.8261 19.5 19.4689 21.8572 19.4689 24.765C19.4689 27.6728 21.8261 30.03 24.7339 30.03Z" fill="white"/>
<path d="M9.95904 13.77C9.74984 13.7673 9.54542 13.7071 9.36816 13.596C9.19089 13.4849 9.04762 13.3271 8.95404 13.14C8.82404 12.8732 8.80469 12.5659 8.90021 12.285C8.99573 12.004 9.19839 11.7722 9.46404 11.64L15.284 8.72999C15.4149 8.66306 15.5576 8.62276 15.7041 8.61145C15.8506 8.60014 15.9979 8.61802 16.1375 8.66407C16.277 8.71012 16.406 8.78341 16.517 8.8797C16.628 8.97599 16.7188 9.09335 16.784 9.22499C16.9151 9.48991 16.9367 9.79579 16.8441 10.0765C16.7514 10.3572 16.5521 10.5901 16.289 10.725L10.469 13.635C10.311 13.7168 10.1369 13.7629 9.95904 13.77V13.77Z" fill="white"/>
<path d="M15.7939 21.405C15.6223 21.4009 15.4535 21.3599 15.2989 21.285L9.47894 18.375C9.21605 18.2399 9.01593 18.0079 8.92079 17.7281C8.82564 17.4482 8.84291 17.1424 8.96894 16.875C9.10381 16.612 9.33677 16.4126 9.61746 16.32C9.89815 16.2273 10.204 16.2489 10.4689 16.38L16.2889 19.29C16.4206 19.3553 16.538 19.4461 16.6342 19.557C16.7305 19.668 16.8038 19.797 16.8499 19.9366C16.8959 20.0761 16.9138 20.2234 16.9025 20.3699C16.8912 20.5164 16.8509 20.6592 16.784 20.79C16.6908 20.9731 16.5493 21.1273 16.3748 21.2357C16.2003 21.3441 15.9994 21.4027 15.7939 21.405Z" fill="white"/>
<path d="M10.529 15.015C10.5338 15.833 10.3435 16.6403 9.97394 17.37C9.44345 18.4307 8.57036 19.2813 7.49611 19.7839C6.42186 20.2865 5.20939 20.4116 4.05512 20.1391C2.90086 19.8666 1.87241 19.2123 1.13642 18.2823C0.400428 17.3523 0 16.201 0 15.015C0 13.829 0.400428 12.6777 1.13642 11.7477C1.87241 10.8177 2.90086 10.1634 4.05512 9.8909C5.20939 9.61836 6.42186 9.74354 7.49611 10.2461C8.57036 10.7487 9.44345 11.5993 9.97394 12.66C10.3435 13.3897 10.5338 14.1971 10.529 15.015V15.015Z" fill="white"/>
</svg>
